<svg xmlns="http://www.w3.org/2000/svg" width="400" height="300" viewBox="0 0 400 300">
  <defs>
    <linearGradient id="bg2" x1="0%" y1="0%" x2="100%" y2="100%">
      <stop offset="0%" style="stop-color:#0f1419"/>
      <stop offset="100%" style="stop-color:#1a1a2e"/>
    </linearGradient>
    <linearGradient id="sentiment" x1="0%" y1="0%" x2="100%" y2="0%">
      <stop offset="0%" style="stop-color:#ff6b6b"/>
      <stop offset="50%" style="stop-color:#4ecdc4"/>
      <stop offset="100%" style="stop-color:#45b7d1"/>
    </linearGradient>
  </defs>
  <rect width="400" height="300" fill="url(#bg2)"/>
  
  <!-- Text representations -->
  <rect x="50" y="50" width="80" height="8" fill="#667eea" rx="4"/>
  <rect x="50" y="70" width="120" height="8" fill="#764ba2" rx="4"/>
  <rect x="50" y="90" width="60" height="8" fill="#BB86FC" rx="4"/>
  <rect x="50" y="110" width="100" height="8" fill="#667eea" rx="4"/>
  
  <!-- Arrow transformation -->
  <polygon points="180,80 200,70 200,85 220,85 220,75 240,90 220,105 220,95 200,95 200,110 180,100" fill="url(#sentiment)"/>
  
  <!-- Sentiment faces -->
  <circle cx="300" cy="80" r="25" fill="none" stroke="#ff6b6b" stroke-width="3"/>
  <circle cx="292" cy="72" r="3" fill="#ff6b6b"/>
  <circle cx="308" cy="72" r="3" fill="#ff6b6b"/>
  <path d="M 285 90 Q 300 100 315 90" stroke="#ff6b6b" stroke-width="3" fill="none"/>
  
  <circle cx="300" cy="150" r="25" fill="none" stroke="#4ecdc4" stroke-width="3"/>
  <circle cx="292" cy="142" r="3" fill="#4ecdc4"/>
  <circle cx="308" cy="142" r="3" fill="#4ecdc4"/>
  <path d="M 285 165 Q 300 155 315 165" stroke="#4ecdc4" stroke-width="3" fill="none"/>
  
  <!-- NLP processing visualization -->
  <rect x="80" y="180" width="240" height="80" fill="none" stroke="#BB86FC" stroke-width="2" rx="10"/>
  <text x="200" y="205" font-family="Arial, sans-serif" font-size="12" fill="#E0E0E0" text-anchor="middle">Natural Language Processing</text>
  
  <!-- Processing nodes -->
  <circle cx="120" cy="230" r="8" fill="#667eea"/>
  <circle cx="160" cy="230" r="8" fill="#764ba2"/>
  <circle cx="200" cy="230" r="8" fill="#BB86FC"/>
  <circle cx="240" cy="230" r="8" fill="#4ecdc4"/>
  <circle cx="280" cy="230" r="8" fill="#45b7d1"/>
  
  <line x1="128" y1="230" x2="152" y2="230" stroke="#667eea" stroke-width="2"/>
  <line x1="168" y1="230" x2="192" y2="230" stroke="#764ba2" stroke-width="2"/>
  <line x1="208" y1="230" x2="232" y2="230" stroke="#BB86FC" stroke-width="2"/>
  <line x1="248" y1="230" x2="272" y2="230" stroke="#4ecdc4" stroke-width="2"/>
  
  <text x="200" y="280" font-family="Arial, sans-serif" font-size="14" fill="#E0E0E0" text-anchor="middle">Sentiment Analysis</text>
</svg>