<svg xmlns="http://www.w3.org/2000/svg" width="400" height="300" viewBox="0 0 400 300">
  <defs>
    <linearGradient id="bg3" x1="0%" y1="0%" x2="100%" y2="100%">
      <stop offset="0%" style="stop-color:#1e3a8a"/>
      <stop offset="100%" style="stop-color:#1e40af"/>
    </linearGradient>
  </defs>
  <rect width="400" height="300" fill="url(#bg3)"/>
  
  <!-- Shield icon -->
  <path d="M 150 80 L 150 120 Q 150 140 170 150 Q 190 140 190 120 L 190 80 Q 170 70 150 80 Z" fill="#60a5fa" stroke="#ffffff" stroke-width="2"/>
  <path d="M 160 100 L 175 110 L 185 90" stroke="#ffffff" stroke-width="3" fill="none" stroke-linecap="round"/>
  
  <!-- Rising chart -->
  <rect x="250" y="60" width="120" height="100" fill="none" stroke="#ffffff" stroke-width="2" rx="5"/>
  <polyline points="260,140 280,120 300,100 320,80 340,60 360,40" stroke="#60a5fa" stroke-width="3" fill="none"/>
  <circle cx="260" cy="140" r="3" fill="#60a5fa"/>
  <circle cx="280" cy="120" r="3" fill="#60a5fa"/>
  <circle cx="300" cy="100" r="3" fill="#60a5fa"/>
  <circle cx="320" cy="80" r="3" fill="#60a5fa"/>
  <circle cx="340" cy="60" r="3" fill="#60a5fa"/>
  <circle cx="360" cy="40" r="3" fill="#60a5fa"/>
  
  <!-- User profiles -->
  <circle cx="80" cy="220" r="15" fill="none" stroke="#ffffff" stroke-width="2"/>
  <circle cx="80" cy="215" r="5" fill="#ffffff"/>
  <path d="M 70 235 Q 80 225 90 235" stroke="#ffffff" stroke-width="2" fill="none"/>
  
  <circle cx="150" cy="220" r="15" fill="none" stroke="#60a5fa" stroke-width="2"/>
  <circle cx="150" cy="215" r="5" fill="#60a5fa"/>
  <path d="M 140 235 Q 150 225 160 235" stroke="#60a5fa" stroke-width="2" fill="none"/>
  
  <circle cx="220" cy="220" r="15" fill="none" stroke="#93c5fd" stroke-width="2"/>
  <circle cx="220" cy="215" r="5" fill="#93c5fd"/>
  <path d="M 210 235 Q 220 225 230 235" stroke="#93c5fd" stroke-width="2" fill="none"/>
  
  <!-- Prediction arrows -->
  <polygon points="300,200 320,190 320,200 340,200 340,190 360,205 340,220 340,210 320,210 320,220 300,210" fill="#60a5fa"/>
  
  <text x="200" y="280" font-family="Arial, sans-serif" font-size="14" fill="#ffffff" text-anchor="middle">Insurance Prediction</text>
</svg>