<svg xmlns="http://www.w3.org/2000/svg" width="400" height="300" viewBox="0 0 400 300">
  <defs>
    <linearGradient id="bg1" x1="0%" y1="0%" x2="100%" y2="100%">
      <stop offset="0%" style="stop-color:#1a1a2e"/>
      <stop offset="100%" style="stop-color:#16213e"/>
    </linearGradient>
    <linearGradient id="gold" x1="0%" y1="0%" x2="100%" y2="0%">
      <stop offset="0%" style="stop-color:#ffd700"/>
      <stop offset="100%" style="stop-color:#ffb347"/>
    </linearGradient>
  </defs>
  <rect width="400" height="300" fill="url(#bg1)"/>
  
  <!-- Film reel -->
  <circle cx="100" cy="80" r="25" fill="none" stroke="url(#gold)" stroke-width="3"/>
  <circle cx="100" cy="80" r="15" fill="none" stroke="url(#gold)" stroke-width="2"/>
  <circle cx="85" cy="65" r="3" fill="url(#gold)"/>
  <circle cx="115" cy="65" r="3" fill="url(#gold)"/>
  <circle cx="115" cy="95" r="3" fill="url(#gold)"/>
  <circle cx="85" cy="95" r="3" fill="url(#gold)"/>
  
  <!-- Data charts -->
  <rect x="200" y="50" width="150" height="100" fill="none" stroke="#667eea" stroke-width="2" rx="5"/>
  <rect x="220" y="120" width="15" height="20" fill="#667eea"/>
  <rect x="240" y="110" width="15" height="30" fill="#764ba2"/>
  <rect x="260" y="100" width="15" height="40" fill="#BB86FC"/>
  <rect x="280" y="90" width="15" height="50" fill="#ffd700"/>
  <rect x="300" y="85" width="15" height="55" fill="#667eea"/>
  
  <!-- ML Icons -->
  <circle cx="80" cy="200" r="20" fill="none" stroke="#BB86FC" stroke-width="2"/>
  <circle cx="80" cy="200" r="3" fill="#BB86FC"/>
  <line x1="65" y1="185" x2="95" y2="215" stroke="#BB86FC" stroke-width="2"/>
  <line x1="95" y1="185" x2="65" y2="215" stroke="#BB86FC" stroke-width="2"/>
  
  <!-- Neural network nodes -->
  <circle cx="250" cy="200" r="4" fill="#667eea"/>
  <circle cx="280" cy="180" r="4" fill="#764ba2"/>
  <circle cx="280" cy="220" r="4" fill="#764ba2"/>
  <circle cx="320" cy="200" r="4" fill="#BB86FC"/>
  
  <line x1="254" y1="200" x2="276" y2="180" stroke="#667eea" stroke-width="1.5"/>
  <line x1="254" y1="200" x2="276" y2="220" stroke="#667eea" stroke-width="1.5"/>
  <line x1="284" y1="180" x2="316" y2="200" stroke="#764ba2" stroke-width="1.5"/>
  <line x1="284" y1="220" x2="316" y2="200" stroke="#764ba2" stroke-width="1.5"/>
  
  <text x="200" y="280" font-family="Arial, sans-serif" font-size="14" fill="#E0E0E0" text-anchor="middle">Movie Analysis ML</text>
</svg>